/* XPM */
static char *_56e636e7399457d9dd1c27801172a44[] = {
/* columns rows colors chars-per-pixel */
"30 30 131 2 ",
"   c black",
".  c #010101",
"X  c #020202",
"o  c gray1",
"O  c #040404",
"+  c gray2",
"@  c #060606",
"#  c gray3",
"$  c gray4",
"%  c #0B0B0B",
"&  c gray5",
"*  c #0E0E0E",
"=  c gray6",
"-  c #111111",
";  c gray8",
":  c #161616",
">  c gray9",
",  c #181818",
"<  c gray10",
"1  c #1B1B1B",
"2  c gray11",
"3  c #222222",
"4  c #232323",
"5  c gray14",
"6  c gray15",
"7  c gray18",
"8  c #313131",
"9  c #353535",
"0  c #373737",
"q  c #3A3A3A",
"w  c gray24",
"e  c #414141",
"r  c #434343",
"t  c gray30",
"y  c #505050",
"u  c gray32",
"i  c #555555",
"p  c #565656",
"a  c gray34",
"s  c #5A5A5A",
"d  c #5B5B5B",
"f  c gray36",
"g  c #5D5D5D",
"h  c gray37",
"j  c #5F5F5F",
"k  c #606060",
"l  c gray38",
"z  c #626262",
"x  c gray39",
"c  c #646464",
"v  c gray40",
"b  c #686868",
"n  c DimGray",
"m  c gray42",
"M  c #6C6C6C",
"N  c #6D6D6D",
"B  c gray43",
"V  c #6F6F6F",
"C  c #717171",
"Z  c gray45",
"A  c #767676",
"S  c gray48",
"D  c #7C7C7C",
"F  c gray49",
"G  c #7E7E7E",
"H  c #818181",
"J  c gray51",
"K  c #838383",
"L  c #888888",
"P  c #898989",
"I  c gray54",
"U  c gray56",
"Y  c #909090",
"T  c #989898",
"R  c gray60",
"E  c #9A9A9A",
"W  c gray61",
"Q  c #9F9F9F",
"!  c #A5A5A5",
"~  c #A7A7A7",
"^  c gray66",
"/  c #A9A9A9",
"(  c gray67",
")  c gray69",
"_  c #B1B1B1",
"`  c #B2B2B2",
"'  c #B7B7B7",
"]  c #B9B9B9",
"[  c gray73",
"{  c #BCBCBC",
"}  c gray74",
"|  c gray",
" . c gray75",
".. c gray77",
"X. c #C6C6C6",
"o. c #CACACA",
"O. c #CBCBCB",
"+. c gray80",
"@. c #CDCDCD",
"#. c #CECECE",
"$. c #D0D0D0",
"%. c gray82",
"&. c #D2D2D2",
"*. c gray83",
"=. c #D5D5D5",
"-. c #D7D7D7",
";. c #D8D8D8",
":. c gray85",
">. c #DADADA",
",. c gainsboro",
"<. c #E1E1E1",
"1. c gray89",
"2. c #E4E4E4",
"3. c gray91",
"4. c #E9E9E9",
"5. c #EAEAEA",
"6. c gray92",
"7. c #ECECEC",
"8. c gray93",
"9. c #EEEEEE",
"0. c gray94",
"q. c #F1F1F1",
"w. c gray95",
"e. c gray97",
"r. c #F8F8F8",
"t. c #F9F9F9",
"y. c gray98",
"u. c #FBFBFB",
"i. c #FDFDFD",
"p. c #FEFEFE",
"a. c white",
/* pixels */
"a.a.a.a.a.a.a.a.a.a.a.a.a.a.a.a.a.a.a.a.a.a.a.a.a.a.a.a.a.a.",
"a.a.a.a.a.a.a.a.a.a.a.a.a.a.a.a.a.a.a.a.y.S G y.a.a.a.a.a.a.",
"a.a.a.a.a.a.a.a.a.a.a.a.a.a.a.a.a.a.a.a.' + O [ a.a.a.a.a.a.",
"a.a.a.a.a.a.a.a.a.a.a.a.a.a.a.a.a.a.a.p.L . . E a.a.a.a.a.a.",
"a.a.a.a.a.a.a.a.a.a.a.a.a.a.a.a.a.a.a.t.0   X _ p.a.a.a.a.a.",
"a.a.a.a.a.a.a.a.a.a.a.a.a.a.a.a.a.a.p.! X     9 ;.p.a.a.a.a.",
"a.a.a.a.a.a.a.a.a.a.a.a.a.a.a.a.a.a.7.< .     . 6 4.a.a.a.a.",
"a.a.p.a.a.a.a.a.a.a.a.a.a.a.a.a.a.i.l .           f u.a.a.a.",
"a.$.R 2.p.a.a.a.a.a.a.a.a.a.a.a.p.) +             O z 5.p.a.",
"4.> . 5 $.p.a.a.a.a.a.a.a.a.a.a.*.: .               . 3 | p.",
":.@   . , { p.a.a.a.a.a.a.a.a.p.I $ . .               . % ` ",
"u.C O   . * j x x c c c c c c D 8.O.r o               . . t ",
"a.p./ - .         . . . . . . . 2 T e./ 5 o . * > .   . @ Q ",
"a.a.p.&.4                         X q X.9.F : } 5.Y f b ] p.",
"a.a.a.p.N .                         . @ x 2.8.p.a.p.p.p.a.a.",
"a.a.a.p.A .                         . . . : @.a.a.a.a.a.a.a.",
"a.a.a.a.P .                         . . . X o.a.a.a.a.a.a.a.",
"a.a.a.a.U X                             . O ,.a.a.a.a.a.a.a.",
"a.a.a.a.Y .                             . @ 1.a.a.a.a.a.a.a.",
"a.a.a.a.K .                               + 2.a.a.a.a.a.a.a.",
"a.a.a.p.s .       X 7 y g n B M z i e =   + 2.a.a.a.a.a.a.a.",
"a.a.a.6.;   O O   @  .a.a.a.a.a.a.a.p.V . O <.a.a.a.a.a.a.a.",
"a.a.p.H . . h S . . w u.a.a.a.a.a.a.a.A . O >.a.a.a.a.a.a.a.",
"a.a.3.;   # -.0.1 . o ^ p.a.a.a.a.a.p.Z   O +.a.a.a.a.a.a.a.",
"a.p.m . . v p.p.W X . 4 w.a.a.a.a.a.a.B   o ..a.a.a.a.a.a.a.",
"a.%.& X $ =.a.a.e.8 . X J a.a.a.a.a.p.c   o [ a.a.a.a.a.a.a.",
"a.~ O o k p.a.a.p.( O . a p.a.a.a.a.p.Z . o ' a.a.a.a.a.a.a.",
"a.q.M d 2.p.a.a.a.u.J u #.a.a.a.a.a.p.,.p N r.a.a.a.a.a.a.a.",
"a.a.p.a.a.a.a.a.a.a.a.a.a.a.a.a.a.a.a.a.a.p.a.a.a.a.a.a.a.a.",
"a.a.a.a.a.a.a.a.a.a.a.a.a.a.a.a.a.a.a.a.a.a.a.a.a.a.a.a.a.a."
};
